<svg xmlns="http://www.w3.org/2000/svg" xmlns:xlink="http://www.w3.org/1999/xlink" width="64" zoomAndPan="magnify" viewBox="0 0 375 374.999991" height="64" preserveAspectRatio="xMidYMid meet" version="1.0"><defs><clipPath id="id1"><path d="M 71 246 L 312.800781 246 L 312.800781 337.621094 L 71 337.621094 Z M 71 246 " clip-rule="nonzero"/></clipPath><clipPath id="id2"><path d="M 220.074219 126 L 366.199219 126 L 366.199219 285.410156 L 220.074219 285.410156 Z M 220.074219 126 " clip-rule="nonzero"/></clipPath><clipPath id="id3"><path d="M 33 66.25 L 233 66.25 L 233 335 L 33 335 Z M 33 66.25 " clip-rule="nonzero"/></clipPath></defs><path fill="#f4f2ef" d="M 293.292969 279.445312 C 256.273438 279.445312 226.542969 249.371094 226.542969 212.25 C 226.542969 211.460938 226.460938 210.695312 226.542969 209.921875 C 226.695312 208.832031 226.542969 207.664062 226.542969 206.425781 C 226.542969 206.277344 226.542969 206.125 226.542969 205.964844 L 226.542969 190.925781 C 226.542969 192.164062 226.460938 193.332031 226.230469 194.410156 C 224.679688 205.035156 216.933594 213.71875 206.792969 216.507812 C 206.316406 216.589844 205.9375 216.738281 205.472656 216.820312 C 205.011719 216.890625 204.539062 216.972656 204.074219 217.121094 C 203.761719 217.121094 203.542969 217.121094 203.300781 217.203125 C 202.996094 217.285156 202.6875 217.285156 202.453125 217.355469 C 201.910156 217.355469 201.449219 217.355469 200.984375 217.433594 C 200.511719 217.433594 200.050781 217.433594 199.585938 217.433594 C 197.183594 217.433594 194.789062 217.121094 192.535156 216.507812 C 191.769531 216.347656 191.066406 216.117188 190.300781 215.8125 C 188.671875 215.1875 187.121094 214.492188 185.652344 213.558594 C 184.875 213.09375 184.183594 212.632812 183.476562 212.085938 C 182.785156 211.625 182.089844 211.078125 181.464844 210.464844 C 176.042969 205.5 172.640625 198.371094 172.640625 190.464844 L 172.640625 73.027344 L 172.945312 73.027344 C 175.578125 73.027344 178.214844 73.179688 180.773438 73.652344 C 176.273438 72.5625 171.636719 72.019531 166.753906 72.019531 C 133.613281 72.019531 106.65625 98.910156 106.65625 132.085938 L 106.585938 143.410156 C 106.585938 158.214844 94.582031 170.230469 79.792969 170.230469 L 66.46875 170.230469 C 71.8125 170.230469 76.542969 173.480469 78.554688 178.136719 C 78.785156 178.519531 78.9375 178.910156 79.097656 179.304688 C 79.167969 179.605469 79.328125 179.917969 79.398438 180.230469 C 79.398438 180.382812 79.480469 180.460938 79.480469 180.613281 C 79.710938 181.316406 79.792969 182.09375 79.792969 182.789062 C 79.792969 183.019531 79.863281 183.332031 79.863281 183.5625 C 79.863281 183.945312 79.863281 184.339844 79.792969 184.722656 C 79.792969 184.953125 79.710938 185.195312 79.710938 185.347656 C 79.710938 185.578125 79.628906 185.808594 79.558594 185.960938 C 79.558594 186.273438 79.480469 186.585938 79.398438 186.898438 C 79.328125 187.441406 79.167969 187.984375 78.9375 188.449219 C 78.855469 188.601562 78.785156 188.761719 78.703125 188.910156 C 78.703125 189.0625 78.625 189.222656 78.554688 189.375 C 78.394531 189.6875 78.242188 190 78.011719 190.300781 C 77.847656 190.613281 77.777344 190.847656 77.546875 191.078125 C 77.386719 191.238281 77.316406 191.46875 77.15625 191.621094 C 76.773438 192.164062 76.378906 192.628906 75.917969 193.101562 C 75.375 193.636719 74.761719 194.179688 74.054688 194.644531 C 73.59375 195.035156 73.050781 195.347656 72.507812 195.578125 C 72.273438 195.730469 71.964844 195.890625 71.660156 195.960938 C 71.351562 196.125 70.957031 196.273438 70.644531 196.355469 C 70.496094 196.425781 70.34375 196.507812 70.261719 196.507812 C 70.03125 196.507812 69.878906 196.585938 69.71875 196.667969 C 69.570312 196.667969 69.417969 196.667969 69.257812 196.738281 C 68.875 196.816406 68.5625 196.898438 68.179688 196.898438 C 68.101562 196.96875 67.9375 196.96875 67.789062 196.96875 C 67.394531 197.050781 66.933594 197.050781 66.46875 197.050781 L 39.050781 197.050781 L 39.050781 201.007812 C 39.050781 225.191406 55.160156 245.65625 77.316406 252.164062 L 77.316406 252.242188 C 98.226562 299.136719 145.152344 331.847656 199.738281 331.847656 C 243.566406 331.847656 282.527344 310.6875 306.914062 278.054688 C 302.5 278.984375 297.941406 279.445312 293.292969 279.445312 " fill-opacity="1" fill-rule="nonzero"/><path fill="#f4f2ef" d="M 326.125 153.640625 L 315.820312 160.078125 L 271.136719 160.078125 L 260.761719 153.488281 L 226.542969 132.085938 L 226.542969 190.464844 C 226.542969 190.613281 226.542969 190.773438 226.542969 190.925781 L 226.542969 205.964844 C 226.542969 206.125 226.542969 206.277344 226.542969 206.425781 C 226.542969 207.664062 226.695312 208.832031 226.542969 209.921875 C 226.460938 210.695312 226.542969 211.460938 226.542969 212.25 C 226.542969 249.371094 256.273438 279.445312 293.292969 279.445312 C 297.941406 279.445312 302.507812 278.984375 306.914062 278.054688 C 310.941406 277.28125 314.742188 276.042969 318.457031 274.5625 C 323.878906 272.394531 328.910156 269.605469 333.480469 266.113281 C 349.820312 253.863281 360.425781 234.335938 360.425781 212.25 L 360.425781 132.085938 L 326.125 153.640625 " fill-opacity="1" fill-rule="nonzero"/><path fill="#000000" d="M 297.859375 218.058594 C 301.421875 218.058594 303.285156 222.320312 300.878906 224.957031 C 299.015625 226.972656 296.390625 228.210938 293.523438 228.210938 C 290.574219 228.210938 287.949219 226.972656 286.089844 224.957031 C 283.683594 222.320312 285.542969 218.058594 289.105469 218.058594 L 297.859375 218.058594 " fill-opacity="1" fill-rule="nonzero"/><path fill="#000000" d="M 226.53125 190.464844 C 226.53125 190.613281 226.53125 190.773438 226.53125 190.925781 C 226.53125 192.164062 226.460938 193.332031 226.230469 194.410156 C 224.679688 205.035156 216.933594 213.71875 206.792969 216.507812 C 206.316406 216.589844 205.9375 216.738281 205.472656 216.820312 C 205.011719 216.890625 204.539062 216.972656 204.074219 217.121094 C 203.773438 217.121094 203.542969 217.121094 203.300781 217.203125 C 202.996094 217.285156 202.6875 217.285156 202.453125 217.355469 C 201.910156 217.355469 201.449219 217.355469 200.984375 217.433594 C 200.511719 217.433594 200.050781 217.433594 199.585938 217.433594 C 197.183594 217.433594 194.789062 217.121094 192.542969 216.507812 C 191.769531 216.347656 191.066406 216.117188 190.300781 215.8125 C 188.671875 215.1875 187.121094 214.492188 185.652344 213.558594 C 184.875 213.09375 184.183594 212.632812 183.476562 212.085938 C 182.785156 211.625 182.089844 211.078125 181.464844 210.464844 C 176.042969 205.5 172.640625 198.371094 172.640625 190.464844 L 172.640625 73.027344 L 172.953125 73.027344 C 175.578125 73.027344 178.214844 73.179688 180.773438 73.640625 C 205.855469 79.695312 224.75 101.46875 226.53125 127.988281 L 226.53125 190.464844 " fill-opacity="1" fill-rule="nonzero"/><path fill="#000000" d="M 226.53125 126.667969 L 226.53125 127.988281 C 224.75 101.46875 205.855469 79.695312 180.773438 73.640625 C 206.628906 77.367188 226.53125 99.6875 226.53125 126.667969 " fill-opacity="1" fill-rule="nonzero"/><path fill="#000000" d="M 125.179688 139.289062 C 128.539062 139.289062 131.289062 141.976562 131.289062 145.351562 C 131.289062 148.714844 128.539062 151.40625 125.179688 151.40625 C 121.871094 151.40625 119.121094 148.714844 119.121094 145.351562 C 119.121094 141.976562 121.871094 139.289062 125.179688 139.289062 " fill-opacity="1" fill-rule="nonzero"/><path fill="#000000" d="M 148.414062 139.289062 C 151.773438 139.289062 154.519531 141.976562 154.519531 145.351562 C 154.519531 148.714844 151.773438 151.40625 148.414062 151.40625 C 145.101562 151.40625 142.367188 148.714844 142.367188 145.351562 C 142.367188 141.976562 145.101562 139.289062 148.414062 139.289062 " fill-opacity="1" fill-rule="nonzero"/><path fill="#000000" d="M 79.792969 183.25 C 79.792969 184.179688 79.792969 185.113281 79.558594 185.960938 C 79.558594 186.273438 79.480469 186.585938 79.398438 186.898438 C 79.25 187.59375 79.015625 188.21875 78.703125 188.910156 C 78.554688 189.375 78.324219 189.839844 78.011719 190.300781 C 77.847656 190.613281 77.777344 190.847656 77.546875 191.078125 C 77.386719 191.238281 77.316406 191.46875 77.15625 191.621094 C 76.773438 192.164062 76.378906 192.710938 75.917969 193.101562 C 75.292969 193.714844 74.761719 194.179688 74.054688 194.644531 C 73.59375 195.035156 73.050781 195.347656 72.507812 195.578125 C 72.273438 195.730469 71.972656 195.890625 71.660156 195.960938 C 71.351562 196.125 70.957031 196.273438 70.65625 196.355469 C 70.34375 196.507812 70.03125 196.585938 69.71875 196.667969 C 69.570312 196.667969 69.417969 196.667969 69.257812 196.738281 C 69.175781 196.738281 69.175781 196.738281 69.105469 196.738281 C 68.792969 196.816406 68.480469 196.898438 68.171875 196.898438 C 68.101562 196.96875 67.9375 196.96875 67.789062 196.96875 C 67.394531 197.050781 66.933594 197.050781 66.46875 197.050781 L 39.050781 197.050781 C 39.050781 189.6875 42.078125 182.941406 46.878906 178.054688 C 51.757812 173.25 58.421875 170.230469 65.855469 170.230469 C 71.351562 170.230469 76.378906 173.410156 78.554688 178.136719 C 78.9375 178.910156 79.25 179.6875 79.480469 180.613281 C 79.628906 181.46875 79.792969 182.324219 79.792969 183.25 " fill-opacity="1" fill-rule="nonzero"/><path fill="#ff9124" d="M 69.257812 101.691406 L 69.257812 102.375 C 69.257812 119.15625 39.050781 136.972656 39.050781 136.972656 C 39.050781 136.972656 8.855469 119.15625 8.855469 102.375 L 8.855469 101.691406 C 8.855469 93.523438 15.515625 86.746094 23.667969 86.632812 C 23.789062 86.632812 23.898438 86.632812 24.019531 86.632812 C 32.402344 86.855469 39.050781 93.753906 39.050781 102.265625 C 39.050781 93.753906 45.832031 86.855469 54.214844 86.632812 C 54.324219 86.632812 54.324219 86.632812 54.445312 86.632812 C 62.714844 86.746094 69.257812 93.523438 69.257812 101.691406 " fill-opacity="1" fill-rule="nonzero"/><path fill="#000000" d="M 69.105469 196.738281 C 69.175781 196.738281 69.175781 196.738281 69.257812 196.738281 C 68.875 196.816406 68.5625 196.898438 68.171875 196.898438 C 68.480469 196.898438 68.792969 196.816406 69.105469 196.738281 " fill-opacity="1" fill-rule="nonzero"/><g clip-path="url(#id1)"><path fill="#000000" d="M 199.738281 337.621094 C 144.660156 337.621094 94.53125 305.027344 72.042969 254.589844 C 70.746094 251.679688 72.054688 248.265625 74.960938 246.964844 C 77.859375 245.675781 81.28125 246.976562 82.578125 249.886719 C 103.214844 296.175781 149.199219 326.078125 199.738281 326.078125 C 240.457031 326.078125 277.847656 307.316406 302.296875 274.589844 C 304.210938 272.042969 307.820312 271.519531 310.367188 273.433594 C 312.921875 275.335938 313.4375 278.960938 311.535156 281.511719 C 285.273438 316.640625 243.488281 337.621094 199.738281 337.621094 " fill-opacity="1" fill-rule="nonzero"/></g><g clip-path="url(#id2)"><path fill="#000000" d="M 293.292969 285.21875 C 253.296875 285.21875 220.765625 252.484375 220.765625 212.25 L 220.757812 211.652344 C 220.726562 210.886719 220.714844 210.121094 220.796875 209.359375 C 220.808594 209.265625 220.816406 209.1875 220.828125 209.097656 C 220.847656 208.90625 220.828125 208.339844 220.808594 207.925781 C 220.789062 207.433594 220.765625 206.941406 220.765625 206.425781 L 220.765625 190.925781 C 220.765625 187.742188 223.351562 185.15625 226.53125 185.15625 C 229.722656 185.15625 232.296875 187.742188 232.296875 190.925781 L 232.296875 206.425781 C 232.296875 206.769531 232.316406 207.089844 232.339844 207.414062 C 232.367188 208.289062 232.417969 209.378906 232.269531 210.546875 C 232.246094 210.796875 232.277344 211.039062 232.277344 211.28125 C 232.289062 211.605469 232.296875 211.925781 232.296875 212.25 C 232.296875 246.121094 259.65625 273.675781 293.292969 273.675781 C 297.539062 273.675781 301.722656 273.253906 305.730469 272.40625 C 309.097656 271.75 312.441406 270.746094 316.332031 269.195312 C 321.355469 267.1875 325.953125 264.601562 329.976562 261.527344 C 345.683594 249.753906 354.660156 231.808594 354.660156 212.25 L 354.660156 142.53125 L 318.878906 164.972656 C 317.964844 165.546875 316.90625 165.847656 315.820312 165.847656 L 271.136719 165.847656 C 270.050781 165.847656 268.972656 165.535156 268.058594 164.953125 L 257.671875 158.363281 L 223.484375 136.992188 C 220.777344 135.300781 219.960938 131.734375 221.640625 129.035156 C 223.332031 126.328125 226.894531 125.5 229.589844 127.191406 L 272.816406 154.304688 L 314.171875 154.304688 L 357.367188 127.203125 C 359.136719 126.085938 361.378906 126.023438 363.222656 127.042969 C 365.054688 128.058594 366.199219 129.992188 366.199219 132.085938 L 366.199219 212.25 C 366.199219 235.484375 355.535156 256.804688 336.929688 270.734375 C 332.109375 274.421875 326.605469 277.523438 320.601562 279.929688 C 315.992188 281.753906 312.007812 282.953125 308.003906 283.726562 C 303.324219 284.714844 298.34375 285.21875 293.292969 285.21875 " fill-opacity="1" fill-rule="nonzero"/></g><path fill="#000000" d="M 178.40625 79.121094 L 178.40625 190.464844 C 178.40625 196.425781 180.941406 202.15625 185.359375 206.207031 C 185.84375 206.667969 186.226562 206.980469 186.679688 207.292969 C 186.796875 207.363281 186.910156 207.445312 187.019531 207.535156 C 187.53125 207.925781 188.046875 208.269531 188.609375 208.613281 C 189.707031 209.296875 190.824219 209.832031 192.34375 210.414062 C 192.964844 210.65625 193.328125 210.777344 193.671875 210.847656 C 193.800781 210.867188 193.941406 210.910156 194.074219 210.9375 C 195.785156 211.414062 197.683594 211.664062 199.585938 211.664062 L 200.601562 211.664062 C 201.066406 211.613281 201.488281 211.59375 201.882812 211.59375 C 201.941406 211.582031 201.992188 211.574219 202.042969 211.5625 C 202.464844 211.460938 202.855469 211.414062 203.1875 211.382812 C 203.691406 211.261719 204.136719 211.191406 204.496094 211.128906 C 204.859375 211.03125 205.160156 210.949219 205.464844 210.886719 C 213.410156 208.613281 219.316406 201.84375 220.515625 193.574219 C 220.535156 193.453125 220.566406 193.324219 220.585938 193.191406 C 220.707031 192.636719 220.765625 191.894531 220.765625 190.925781 L 220.765625 126.667969 C 220.765625 103.050781 203.21875 82.707031 179.945312 79.363281 C 179.875 79.351562 179.804688 79.34375 179.734375 79.320312 C 179.300781 79.242188 178.871094 79.179688 178.40625 79.121094 Z M 206.792969 216.507812 L 206.8125 216.507812 Z M 205.121094 222.683594 C 205.121094 222.683594 205.109375 222.683594 205.109375 222.683594 C 205.109375 222.683594 205.121094 222.683594 205.121094 222.683594 Z M 204.265625 222.832031 C 204.265625 222.84375 204.265625 222.84375 204.253906 222.84375 C 204.265625 222.84375 204.265625 222.84375 204.265625 222.832031 Z M 204.253906 222.84375 C 204.144531 222.875 204.035156 222.914062 203.914062 222.945312 C 204.035156 222.914062 204.144531 222.875 204.253906 222.84375 Z M 200.984375 223.207031 L 199.585938 223.207031 C 196.6875 223.207031 193.871094 222.84375 191.195312 222.117188 C 190.21875 221.917969 189.273438 221.613281 188.15625 221.171875 C 186.003906 220.347656 184.203125 219.46875 182.574219 218.441406 C 181.707031 217.929688 180.890625 217.375 180.097656 216.769531 C 179.089844 216.085938 178.1875 215.339844 177.390625 214.554688 C 170.769531 208.492188 166.867188 199.660156 166.867188 190.464844 L 166.867188 73.027344 C 166.867188 69.835938 169.453125 67.257812 172.640625 67.257812 L 172.953125 67.257812 C 176.222656 67.257812 179.082031 67.476562 181.6875 67.941406 C 210.554688 72.152344 232.296875 97.378906 232.296875 126.667969 L 232.296875 190.925781 C 232.296875 192.660156 232.175781 194.097656 231.90625 195.429688 C 229.972656 208.21875 220.726562 218.664062 208.3125 222.078125 C 208.128906 222.128906 207.9375 222.167969 207.746094 222.199219 C 207.253906 222.339844 206.851562 222.441406 206.417969 222.511719 C 206.238281 222.542969 206.058594 222.5625 205.886719 222.613281 C 205.351562 222.78125 204.839844 222.875 204.285156 222.894531 C 204.09375 222.933594 203.914062 222.964844 203.734375 222.984375 C 203.210938 223.105469 202.636719 223.125 202.144531 223.125 C 202.050781 223.125 201.960938 223.136719 201.859375 223.136719 C 201.550781 223.195312 201.296875 223.207031 200.984375 223.207031 " fill-opacity="1" fill-rule="nonzero"/><path fill="#000000" d="M 39.050781 202.820312 C 35.871094 202.820312 33.285156 200.242188 33.285156 197.050781 C 33.285156 188.410156 36.65625 180.230469 42.765625 174.007812 C 49.042969 167.820312 57.222656 164.457031 65.855469 164.457031 C 73.613281 164.457031 80.648438 168.878906 83.796875 175.726562 C 84.328125 176.804688 84.761719 177.964844 85.074219 179.222656 C 85.105469 179.34375 85.132812 179.453125 85.15625 179.574219 C 85.324219 180.511719 85.558594 181.78125 85.558594 183.25 C 85.558594 184.421875 85.558594 185.878906 85.125 187.480469 C 84.289062 190.554688 81.121094 192.367188 78.039062 191.539062 C 74.972656 190.703125 73.160156 187.523438 73.996094 184.449219 C 74.015625 184.289062 74.015625 183.683594 74.015625 183.25 C 74.015625 182.878906 73.945312 182.394531 73.84375 181.863281 C 73.746094 181.488281 73.601562 181.148438 73.382812 180.714844 C 72.0625 177.832031 69.066406 176 65.855469 176 C 60.261719 176 54.96875 178.195312 50.925781 182.175781 C 47.011719 186.152344 44.828125 191.460938 44.828125 197.050781 C 44.828125 200.242188 42.242188 202.820312 39.050781 202.820312 " fill-opacity="1" fill-rule="nonzero"/><path fill="#000000" d="M 68.171875 202.671875 C 64.992188 202.671875 62.40625 200.082031 62.40625 196.898438 C 62.40625 193.808594 64.828125 191.289062 67.878906 191.128906 C 67.988281 191.109375 68.128906 191.078125 68.140625 191.078125 C 71.269531 190.453125 74.296875 192.496094 74.910156 195.621094 C 75.535156 198.742188 73.503906 201.785156 70.375 202.40625 L 69.257812 196.738281 L 70.242188 202.429688 C 69.78125 202.527344 69.085938 202.671875 68.171875 202.671875 " fill-opacity="1" fill-rule="nonzero"/><path fill="#000000" d="M 68.078125 191.1875 C 68.078125 191.1875 68.070312 191.1875 68.070312 191.1875 C 68.070312 191.1875 68.078125 191.1875 68.078125 191.1875 Z M 69.730469 202.4375 C 67.152344 202.4375 64.800781 200.6875 64.136719 198.078125 C 63.359375 194.976562 65.222656 191.84375 68.3125 191.066406 C 68.3125 191.066406 68.320312 191.066406 68.320312 191.066406 C 68.332031 191.066406 68.25 191.097656 68.160156 191.148438 C 70.976562 189.777344 74.398438 190.945312 75.808594 193.765625 C 77.234375 196.628906 76.078125 200.089844 73.230469 201.511719 C 72.367188 201.953125 71.601562 202.144531 71.148438 202.257812 C 70.675781 202.378906 70.203125 202.4375 69.730469 202.4375 " fill-opacity="1" fill-rule="nonzero"/><path fill="#000000" d="M 74.066406 200.425781 C 72.203125 200.425781 70.375 199.515625 69.257812 197.84375 C 67.496094 195.195312 68.210938 191.609375 70.867188 189.839844 C 71.199219 189.617188 71.449219 189.40625 71.84375 189.011719 C 71.964844 188.890625 72.09375 188.769531 72.226562 188.660156 C 72.195312 188.660156 72.316406 188.46875 72.445312 188.289062 L 81.835938 195.003906 C 81.371094 195.648438 80.746094 196.527344 79.84375 197.332031 C 78.976562 198.179688 78.171875 198.84375 77.257812 199.445312 C 76.269531 200.101562 75.164062 200.425781 74.066406 200.425781 " fill-opacity="1" fill-rule="nonzero"/><path fill="#000000" d="M 78 196.082031 C 76.902344 196.082031 75.785156 195.761719 74.8125 195.105469 C 72.164062 193.34375 71.441406 189.757812 73.210938 187.097656 C 73.269531 186.929688 73.351562 186.746094 73.433594 186.566406 C 73.625 186.140625 73.714844 185.878906 73.773438 185.660156 C 74.457031 182.535156 77.527344 180.574219 80.636719 181.257812 C 83.753906 181.941406 85.71875 185.023438 85.035156 188.136719 C 84.773438 189.304688 84.398438 190.28125 84.078125 191.027344 C 83.765625 191.875 83.34375 192.710938 82.808594 193.503906 C 81.691406 195.175781 79.871094 196.082031 78 196.082031 " fill-opacity="1" fill-rule="nonzero"/><g clip-path="url(#id3)"><path fill="#000000" d="M 85.558594 182.777344 C 85.558594 182.777344 85.558594 182.789062 85.558594 182.789062 C 85.558594 182.789062 85.558594 182.777344 85.558594 182.777344 Z M 74.410156 183.363281 C 74.410156 183.371094 74.410156 183.371094 74.410156 183.371094 C 74.410156 183.371094 74.410156 183.371094 74.410156 183.363281 Z M 74.136719 183.585938 C 74.136719 183.585938 74.136719 183.59375 74.136719 183.59375 C 74.136719 183.59375 74.136719 183.585938 74.136719 183.585938 Z M 74.015625 184.710938 Z M 74.015625 184.722656 Z M 73.964844 184.882812 C 73.957031 185.035156 73.945312 185.1875 73.945312 185.347656 C 73.945312 185.214844 73.957031 185.054688 73.964844 184.882812 Z M 73.792969 185.960938 Z M 73.453125 187.019531 C 73.414062 187.050781 73.382812 187.078125 73.351562 187.121094 C 73.382812 187.078125 73.414062 187.050781 73.453125 187.019531 Z M 73.089844 187.523438 C 73.089844 187.53125 73.089844 187.53125 73.082031 187.53125 C 73.089844 187.53125 73.089844 187.53125 73.089844 187.523438 Z M 72.9375 188.902344 Z M 72.9375 188.902344 C 72.9375 188.902344 72.9375 188.910156 72.9375 188.910156 C 72.9375 188.910156 72.9375 188.902344 72.9375 188.902344 Z M 70.261719 190.734375 C 70.261719 190.734375 70.261719 190.734375 70.253906 190.734375 C 70.261719 190.734375 70.261719 190.734375 70.261719 190.734375 Z M 69.308594 190.773438 Z M 66.710938 191.300781 C 66.691406 191.308594 66.671875 191.308594 66.652344 191.308594 C 66.671875 191.308594 66.691406 191.308594 66.710938 191.300781 Z M 64.617188 192.347656 C 64.4375 192.488281 64.257812 192.648438 64.085938 192.828125 C 64.257812 192.660156 64.425781 192.496094 64.617188 192.347656 Z M 64.085938 192.828125 C 64.074219 192.828125 64.074219 192.828125 64.074219 192.828125 C 64.074219 192.828125 64.074219 192.828125 64.085938 192.828125 Z M 64.074219 192.839844 C 64.066406 192.839844 64.066406 192.839844 64.066406 192.839844 C 64.066406 192.839844 64.066406 192.839844 64.074219 192.839844 Z M 71.832031 201.90625 Z M 172.984375 334.859375 C 169.804688 334.859375 167.21875 332.28125 167.21875 329.089844 C 167.21875 295.773438 153.414062 260.109375 132.878906 260.109375 L 92.640625 260.109375 C 86.714844 260.109375 81.089844 259.292969 75.675781 257.703125 C 50.722656 250.359375 33.285156 227.054688 33.285156 201.007812 L 33.285156 197.050781 C 33.285156 193.867188 35.871094 191.277344 39.050781 191.277344 L 66.46875 191.277344 C 66.601562 191.277344 66.730469 191.289062 66.851562 191.277344 C 66.851562 191.277344 66.851562 191.277344 66.863281 191.277344 C 67.132812 191.207031 67.414062 191.167969 67.707031 191.148438 C 67.816406 191.117188 67.949219 191.085938 68.070312 191.066406 C 68.179688 191.046875 68.28125 191.027344 68.371094 191.007812 C 68.503906 190.964844 68.621094 190.9375 68.765625 190.90625 C 68.925781 190.847656 69.097656 190.796875 69.257812 190.753906 C 69.398438 190.675781 69.519531 190.613281 69.648438 190.5625 C 69.839844 190.453125 70.042969 190.363281 70.242188 190.273438 C 70.394531 190.140625 70.695312 189.960938 70.867188 189.839844 C 71.160156 189.648438 71.492188 189.367188 71.84375 189.011719 C 72.074219 188.78125 72.265625 188.539062 72.464844 188.265625 C 72.488281 188.238281 72.515625 188.195312 72.535156 188.167969 C 72.628906 188.027344 72.726562 187.863281 72.867188 187.683594 C 72.980469 187.472656 73.109375 187.25 73.242188 187.050781 C 73.332031 186.796875 73.433594 186.554688 73.554688 186.3125 L 73.746094 185.929688 C 73.773438 185.730469 73.765625 185.679688 73.816406 185.488281 C 73.816406 185.488281 73.816406 185.476562 73.816406 185.476562 C 73.84375 185.085938 73.914062 184.703125 74.027344 184.320312 C 74.035156 184.289062 74.035156 184.257812 74.046875 184.21875 C 74.054688 184.085938 74.078125 183.945312 74.097656 183.804688 C 74.046875 183.433594 74.015625 183.089844 74.015625 182.789062 C 74.015625 182.515625 73.996094 182.394531 73.996094 182.386719 C 73.914062 182.164062 73.855469 181.953125 73.816406 181.730469 C 73.804688 181.679688 73.792969 181.628906 73.785156 181.578125 C 73.746094 181.480469 73.695312 181.347656 73.644531 181.207031 C 73.625 181.15625 73.601562 181.105469 73.574219 181.046875 C 73.441406 180.835938 73.363281 180.664062 73.261719 180.433594 C 72.113281 177.78125 69.378906 176 66.46875 176 C 63.289062 176 60.703125 173.421875 60.703125 170.230469 C 60.703125 167.046875 63.289062 164.457031 66.46875 164.457031 L 79.792969 164.457031 C 91.382812 164.457031 100.820312 155.011719 100.820312 143.410156 L 100.890625 132.058594 C 100.890625 95.789062 130.441406 66.25 166.753906 66.25 C 172.039062 66.25 177.210938 66.84375 182.121094 68.03125 C 210.183594 74.800781 230.347656 98.730469 232.289062 127.597656 C 232.378906 129.066406 232.457031 130.578125 232.457031 132.085938 C 232.457031 135.28125 229.871094 137.867188 226.695312 137.867188 C 223.503906 137.867188 220.929688 135.28125 220.929688 132.085938 C 220.929688 130.808594 220.847656 129.53125 220.777344 128.320312 C 219.1875 104.570312 202.566406 84.832031 179.421875 79.261719 C 175.339844 78.265625 171.191406 77.792969 166.753906 77.792969 C 136.800781 77.792969 112.433594 102.15625 112.433594 132.085938 L 112.351562 143.449219 C 112.351562 160.015625 99.886719 173.765625 83.816406 175.75 C 84.058594 176.203125 84.25 176.65625 84.429688 177.109375 C 84.53125 177.351562 84.621094 177.632812 84.679688 177.882812 C 84.78125 178.105469 84.902344 178.46875 84.992188 178.820312 C 85.011719 178.902344 85.035156 178.972656 85.054688 179.050781 C 85.0625 179.132812 85.082031 179.214844 85.105469 179.304688 C 85.386719 180.28125 85.527344 181.347656 85.558594 182.476562 C 85.605469 182.878906 85.636719 183.25 85.636719 183.5625 C 85.636719 184.015625 85.636719 184.671875 85.515625 185.4375 C 85.507812 185.597656 85.476562 185.757812 85.457031 185.910156 C 85.417969 186.382812 85.335938 186.816406 85.226562 187.210938 C 85.175781 187.53125 85.113281 187.8125 85.0625 188.046875 C 84.882812 189.082031 84.570312 190.050781 84.136719 190.9375 C 83.988281 191.378906 83.828125 191.703125 83.746094 191.894531 C 83.554688 192.265625 83.332031 192.710938 83.011719 193.210938 C 82.820312 193.585938 82.539062 194.089844 82.105469 194.621094 C 81.996094 194.792969 81.863281 194.984375 81.691406 195.195312 C 81.148438 195.933594 80.605469 196.566406 79.992188 197.179688 C 79.167969 198.007812 78.34375 198.703125 77.496094 199.285156 C 76.804688 199.828125 76.039062 200.304688 75.203125 200.695312 C 74.800781 200.917969 74.316406 201.160156 73.753906 201.359375 C 73.460938 201.480469 73.109375 201.632812 72.71875 201.753906 C 72.394531 201.894531 71.984375 202.054688 71.492188 202.15625 C 71.160156 202.257812 70.816406 202.335938 70.472656 202.386719 C 70.292969 202.417969 70.121094 202.449219 69.941406 202.46875 C 69.738281 202.519531 69.519531 202.558594 69.277344 202.589844 C 68.996094 202.648438 68.703125 202.691406 68.402344 202.71875 C 67.65625 202.820312 66.984375 202.820312 66.46875 202.820312 L 44.855469 202.820312 C 45.640625 223.035156 59.4375 240.890625 78.9375 246.621094 C 83.292969 247.910156 87.820312 248.566406 92.410156 248.566406 L 132.878906 248.566406 C 161.59375 248.566406 178.757812 289.507812 178.757812 329.089844 C 178.757812 332.28125 176.171875 334.859375 172.984375 334.859375 " fill-opacity="1" fill-rule="nonzero"/></g><path fill="#000000" d="M 266.15625 206.457031 C 269.515625 206.457031 272.261719 209.144531 272.261719 212.511719 C 272.261719 215.882812 269.515625 218.574219 266.15625 218.574219 C 262.84375 218.574219 260.109375 215.882812 260.109375 212.511719 C 260.109375 209.144531 262.84375 206.457031 266.15625 206.457031 " fill-opacity="1" fill-rule="nonzero"/><path fill="#000000" d="M 320.75 206.457031 C 324.113281 206.457031 326.859375 209.144531 326.859375 212.511719 C 326.859375 215.882812 324.113281 218.574219 320.75 218.574219 C 317.449219 218.574219 314.703125 215.882812 314.703125 212.511719 C 314.703125 209.144531 317.449219 206.457031 320.75 206.457031 " fill-opacity="1" fill-rule="nonzero"/></svg>