<svg xmlns="http://www.w3.org/2000/svg" xmlns:xlink="http://www.w3.org/1999/xlink" width="40" zoomAndPan="magnify" viewBox="0 0 30 30.000001" height="40" preserveAspectRatio="xMidYMid meet" version="1.0"><defs><g/></defs><g fill="#f68b44" fill-opacity="1"><g transform="translate(2.528412, 16.015978)"><g><path d="M 2.242188 -0.683594 C 2.203125 -0.773438 2.113281 -0.84375 2.003906 -0.867188 C 1.9375 -0.882812 1.863281 -0.886719 1.773438 -0.878906 C 1.703125 -0.875 1.628906 -0.863281 1.558594 -0.855469 C 1.492188 -0.84375 1.429688 -0.835938 1.359375 -0.828125 C 1.265625 -0.816406 1.1875 -0.8125 1.132812 -0.859375 C 1.09375 -0.902344 1.078125 -0.964844 1.078125 -1.070312 C 1.074219 -1.324219 1.074219 -1.59375 1.074219 -1.871094 C 1.074219 -1.992188 1.078125 -2.125 1.078125 -2.261719 C 1.074219 -2.351562 1.070312 -2.457031 1.066406 -2.5625 C 1.054688 -2.839844 1.046875 -3.152344 1.027344 -3.457031 C 1.011719 -3.636719 0.910156 -3.757812 0.757812 -3.773438 C 0.746094 -3.773438 0.738281 -3.773438 0.734375 -3.773438 C 0.59375 -3.773438 0.492188 -3.675781 0.445312 -3.496094 C 0.382812 -3.253906 0.332031 -3.054688 0.3125 -2.84375 L 0.292969 -2.683594 C 0.242188 -2.113281 0.1875 -1.523438 0.171875 -0.941406 C 0.164062 -0.667969 0.230469 -0.1875 0.742188 -0.0078125 C 1.195312 0.144531 1.652344 0.0429688 2.144531 -0.316406 C 2.15625 -0.328125 2.171875 -0.34375 2.183594 -0.363281 C 2.261719 -0.476562 2.277344 -0.589844 2.242188 -0.683594 Z M 2.242188 -0.683594 "/></g></g></g><g fill="#f68b44" fill-opacity="1"><g transform="translate(4.960248, 16.015978)"><g><path d="M 1.984375 -3.480469 C 1.960938 -3.484375 1.9375 -3.484375 1.910156 -3.484375 C 1.863281 -3.484375 1.8125 -3.480469 1.761719 -3.46875 L 1.714844 -3.464844 C 0.988281 -3.371094 0.511719 -2.964844 0.257812 -2.222656 C 0.101562 -1.777344 0.152344 -1.222656 0.386719 -0.8125 C 0.597656 -0.449219 0.941406 -0.207031 1.382812 -0.117188 L 1.394531 -0.113281 C 1.464844 -0.0976562 1.535156 -0.0859375 1.605469 -0.0742188 C 2.089844 -0.0195312 2.476562 -0.160156 2.773438 -0.511719 L 2.867188 -0.617188 C 2.941406 -0.703125 3.019531 -0.796875 3.09375 -0.886719 C 3.304688 -1.140625 3.421875 -1.453125 3.460938 -1.878906 C 3.398438 -2.933594 2.824219 -3.277344 1.984375 -3.480469 Z M 2.609375 -1.800781 C 2.589844 -1.761719 2.574219 -1.71875 2.554688 -1.671875 C 2.507812 -1.570312 2.460938 -1.464844 2.398438 -1.363281 C 2.359375 -1.292969 2.300781 -1.238281 2.25 -1.179688 C 2.226562 -1.15625 2.203125 -1.132812 2.183594 -1.109375 C 2.054688 -0.972656 1.878906 -0.890625 1.6875 -0.890625 C 1.640625 -0.890625 1.597656 -0.894531 1.550781 -0.90625 C 1.300781 -0.953125 1.101562 -1.125 1.011719 -1.363281 C 0.882812 -1.726562 0.941406 -2.074219 1.199219 -2.457031 C 1.363281 -2.703125 1.546875 -2.746094 1.816406 -2.605469 C 1.917969 -2.554688 2.027344 -2.503906 2.160156 -2.453125 C 2.457031 -2.328125 2.578125 -2.167969 2.613281 -1.832031 L 2.613281 -1.816406 Z M 2.609375 -1.800781 "/></g></g></g><g fill="#f68b44" fill-opacity="1"><g transform="translate(8.59633, 16.015978)"><g><path d="M 3.546875 -0.722656 C 3.472656 -0.839844 3.355469 -0.890625 3.210938 -0.875 C 3.117188 -0.863281 3.019531 -0.832031 2.9375 -0.804688 C 2.53125 -0.671875 2.046875 -0.570312 1.535156 -0.816406 C 1.109375 -1.027344 0.886719 -1.441406 0.972656 -1.878906 C 1 -2.015625 1.042969 -2.199219 1.132812 -2.34375 C 1.5625 -3.03125 2.046875 -3.222656 2.695312 -2.960938 C 2.78125 -2.925781 2.863281 -2.902344 2.933594 -2.894531 C 3.027344 -2.886719 3.105469 -2.914062 3.152344 -2.980469 C 3.195312 -3.039062 3.199219 -3.117188 3.160156 -3.199219 C 3.117188 -3.285156 3.050781 -3.375 2.957031 -3.457031 C 2.707031 -3.660156 2.394531 -3.761719 2.078125 -3.761719 C 1.800781 -3.761719 1.523438 -3.683594 1.273438 -3.523438 C 0.734375 -3.179688 0.390625 -2.726562 0.246094 -2.175781 C 0.0625 -1.449219 0.214844 -0.851562 0.699219 -0.398438 C 1.066406 -0.0546875 1.550781 0.140625 2.136719 0.1875 C 2.539062 0.164062 2.898438 0.078125 3.242188 -0.0742188 C 3.34375 -0.121094 3.449219 -0.21875 3.546875 -0.34375 C 3.632812 -0.457031 3.632812 -0.597656 3.546875 -0.722656 Z M 3.546875 -0.722656 "/></g></g></g><g fill="#f68b44" fill-opacity="1"><g transform="translate(12.381777, 16.015978)"><g><path d="M 3.566406 -0.761719 C 3.554688 -0.828125 3.539062 -0.90625 3.515625 -0.980469 C 3.257812 -1.859375 2.816406 -2.652344 2.382812 -3.386719 C 2.273438 -3.566406 2.132812 -3.65625 1.976562 -3.65625 C 1.882812 -3.65625 1.785156 -3.628906 1.675781 -3.566406 C 1.546875 -3.488281 1.433594 -3.390625 1.367188 -3.292969 C 1.226562 -3.089844 1.109375 -2.867188 1.019531 -2.671875 C 0.851562 -2.320312 0.71875 -2.027344 0.605469 -1.746094 C 0.433594 -1.3125 0.304688 -0.941406 0.191406 -0.59375 C 0.125 -0.398438 0.230469 -0.238281 0.351562 -0.183594 C 0.5 -0.121094 0.644531 -0.1875 0.75 -0.363281 C 0.804688 -0.453125 0.851562 -0.546875 0.894531 -0.640625 C 0.9375 -0.722656 0.984375 -0.816406 1.035156 -0.902344 C 1.070312 -0.960938 1.15625 -1.023438 1.222656 -1.023438 C 1.464844 -1.019531 1.707031 -1.007812 1.945312 -1 C 2.125 -0.988281 2.304688 -0.984375 2.484375 -0.976562 C 2.648438 -0.972656 2.695312 -0.878906 2.722656 -0.78125 C 2.757812 -0.640625 2.800781 -0.53125 2.851562 -0.445312 C 2.949219 -0.277344 3.128906 -0.207031 3.300781 -0.257812 C 3.480469 -0.3125 3.582031 -0.476562 3.582031 -0.703125 C 3.578125 -0.722656 3.570312 -0.742188 3.566406 -0.761719 Z M 1.5 -1.8125 L 1.871094 -2.835938 L 2.371094 -1.8125 Z M 1.5 -1.8125 "/></g></g></g><g fill="#f68b44" fill-opacity="1"><g transform="translate(16.13922, 16.015978)"><g><path d="M 2.242188 -0.683594 C 2.203125 -0.773438 2.113281 -0.84375 2.003906 -0.867188 C 1.9375 -0.882812 1.863281 -0.886719 1.773438 -0.878906 C 1.703125 -0.875 1.628906 -0.863281 1.558594 -0.855469 C 1.492188 -0.84375 1.429688 -0.835938 1.359375 -0.828125 C 1.265625 -0.816406 1.1875 -0.8125 1.132812 -0.859375 C 1.09375 -0.902344 1.078125 -0.964844 1.078125 -1.070312 C 1.074219 -1.324219 1.074219 -1.59375 1.074219 -1.871094 C 1.074219 -1.992188 1.078125 -2.125 1.078125 -2.261719 C 1.074219 -2.351562 1.070312 -2.457031 1.066406 -2.5625 C 1.054688 -2.839844 1.046875 -3.152344 1.027344 -3.457031 C 1.011719 -3.636719 0.910156 -3.757812 0.757812 -3.773438 C 0.746094 -3.773438 0.738281 -3.773438 0.734375 -3.773438 C 0.59375 -3.773438 0.492188 -3.675781 0.445312 -3.496094 C 0.382812 -3.253906 0.332031 -3.054688 0.3125 -2.84375 L 0.292969 -2.683594 C 0.242188 -2.113281 0.1875 -1.523438 0.171875 -0.941406 C 0.164062 -0.667969 0.230469 -0.1875 0.742188 -0.0078125 C 1.195312 0.144531 1.652344 0.0429688 2.144531 -0.316406 C 2.15625 -0.328125 2.171875 -0.34375 2.183594 -0.363281 C 2.261719 -0.476562 2.277344 -0.589844 2.242188 -0.683594 Z M 2.242188 -0.683594 "/></g></g></g><g fill="#f68b44" fill-opacity="1"><g transform="translate(18.571055, 16.015978)"><g><path d="M 2.921875 -2.703125 C 2.800781 -3.417969 2.277344 -3.824219 1.554688 -3.769531 C 1.269531 -3.746094 1.03125 -3.660156 0.808594 -3.507812 L 0.765625 -3.480469 L 0.738281 -3.515625 C 0.726562 -3.53125 0.71875 -3.542969 0.714844 -3.554688 C 0.699219 -3.570312 0.691406 -3.585938 0.683594 -3.59375 C 0.617188 -3.65625 0.535156 -3.6875 0.460938 -3.6875 C 0.433594 -3.6875 0.40625 -3.683594 0.382812 -3.675781 C 0.28125 -3.640625 0.210938 -3.558594 0.1875 -3.441406 C 0.167969 -3.367188 0.167969 -3.285156 0.171875 -3.207031 C 0.175781 -2.894531 0.207031 -2.582031 0.234375 -2.273438 C 0.265625 -1.945312 0.296875 -1.609375 0.304688 -1.273438 C 0.304688 -1.089844 0.289062 -0.894531 0.277344 -0.710938 C 0.269531 -0.617188 0.265625 -0.519531 0.261719 -0.425781 C 0.253906 -0.277344 0.253906 -0.152344 0.359375 -0.0976562 L 0.375 -0.0859375 C 0.421875 -0.0273438 0.535156 0.0195312 0.664062 -0.00390625 C 0.757812 -0.0195312 0.882812 -0.0742188 0.960938 -0.261719 C 1 -0.34375 1 -0.457031 1.003906 -0.558594 L 1.003906 -0.601562 C 1.007812 -0.703125 1 -0.882812 0.996094 -1 L 0.984375 -1.117188 L 1.042969 -1.117188 C 1.117188 -1.117188 1.191406 -1.117188 1.269531 -1.109375 C 1.417969 -1.101562 1.574219 -1.097656 1.695312 -1.117188 C 2.535156 -1.261719 3.054688 -1.929688 2.921875 -2.703125 Z M 1.890625 -2.121094 C 1.699219 -1.9375 1.460938 -1.855469 1.128906 -1.855469 C 1.097656 -1.855469 1.066406 -1.855469 1.027344 -1.859375 L 0.980469 -1.859375 L 0.980469 -1.910156 C 0.980469 -2.222656 1.046875 -2.480469 1.179688 -2.707031 C 1.300781 -2.910156 1.667969 -3.03125 1.871094 -2.9375 C 1.953125 -2.902344 2.027344 -2.820312 2.054688 -2.730469 C 2.132812 -2.511719 2.078125 -2.300781 1.890625 -2.121094 Z M 1.890625 -2.121094 "/></g></g></g><g fill="#f68b44" fill-opacity="1"><g transform="translate(21.689032, 16.015978)"><g><path d="M 2.074219 -0.84375 C 2.007812 -0.839844 1.941406 -0.828125 1.878906 -0.808594 C 1.824219 -0.789062 1.769531 -0.773438 1.71875 -0.765625 C 1.503906 -0.734375 1.3125 -0.710938 1.132812 -0.699219 C 1.09375 -0.695312 1.050781 -0.726562 1.03125 -0.746094 C 1.011719 -0.765625 0.976562 -0.796875 0.976562 -0.839844 C 0.964844 -0.972656 0.964844 -1.105469 0.964844 -1.238281 C 0.964844 -1.285156 0.964844 -1.332031 0.964844 -1.371094 L 0.964844 -1.425781 L 1.019531 -1.425781 C 1.105469 -1.429688 1.195312 -1.433594 1.285156 -1.4375 C 1.5 -1.449219 1.703125 -1.457031 1.910156 -1.476562 C 2.007812 -1.484375 2.121094 -1.515625 2.226562 -1.570312 C 2.316406 -1.609375 2.414062 -1.699219 2.40625 -1.855469 C 2.390625 -1.984375 2.3125 -2.078125 2.183594 -2.105469 C 2.039062 -2.136719 1.871094 -2.148438 1.699219 -2.132812 C 1.5625 -2.121094 1.425781 -2.089844 1.28125 -2.0625 C 1.214844 -2.050781 1.148438 -2.035156 1.078125 -2.027344 L 1.019531 -2.015625 L 1.019531 -2.246094 C 1.019531 -2.367188 1.019531 -2.484375 1.023438 -2.601562 C 1.023438 -2.722656 1.023438 -2.78125 1.066406 -2.824219 C 1.105469 -2.863281 1.167969 -2.863281 1.285156 -2.859375 L 1.40625 -2.847656 C 1.597656 -2.839844 1.792969 -2.828125 1.984375 -2.839844 C 2.289062 -2.859375 2.488281 -3.03125 2.480469 -3.265625 C 2.480469 -3.367188 2.433594 -3.464844 2.351562 -3.535156 C 2.265625 -3.613281 2.144531 -3.660156 2.003906 -3.660156 C 1.988281 -3.660156 1.976562 -3.660156 1.964844 -3.660156 C 1.671875 -3.640625 1.371094 -3.601562 1.089844 -3.558594 L 0.882812 -3.53125 C 0.8125 -3.519531 0.734375 -3.484375 0.671875 -3.449219 C 0.480469 -3.34375 0.410156 -3.21875 0.449219 -3.039062 C 0.453125 -3.003906 0.449219 -2.960938 0.4375 -2.921875 L 0.4375 -2.898438 C 0.414062 -2.769531 0.386719 -2.632812 0.363281 -2.496094 C 0.316406 -2.21875 0.261719 -1.929688 0.222656 -1.640625 C 0.171875 -1.296875 0.128906 -0.902344 0.238281 -0.511719 C 0.320312 -0.210938 0.503906 -0.0273438 0.78125 0.0273438 C 1.25 0.125 1.691406 0.0742188 2.085938 -0.121094 C 2.175781 -0.164062 2.261719 -0.230469 2.328125 -0.304688 C 2.4375 -0.421875 2.464844 -0.546875 2.40625 -0.671875 C 2.328125 -0.832031 2.179688 -0.855469 2.074219 -0.84375 Z M 2.074219 -0.84375 "/></g></g></g><g fill="#f68b44" fill-opacity="1"><g transform="translate(24.344914, 16.015978)"><g><path d="M 2.648438 -3.4375 C 2.609375 -3.445312 2.574219 -3.457031 2.53125 -3.460938 C 2.371094 -3.480469 2.214844 -3.488281 2.054688 -3.488281 C 1.730469 -3.488281 1.410156 -3.457031 1.097656 -3.417969 C 0.902344 -3.398438 0.699219 -3.375 0.5 -3.363281 C 0.496094 -3.363281 0.492188 -3.355469 0.480469 -3.355469 L 0.46875 -3.351562 C 0.269531 -3.296875 0.164062 -3.179688 0.171875 -3.015625 C 0.175781 -2.863281 0.285156 -2.753906 0.480469 -2.707031 C 0.527344 -2.699219 0.574219 -2.695312 0.625 -2.6875 C 0.734375 -2.675781 0.839844 -2.667969 0.949219 -2.65625 L 1.101562 -2.636719 L 1.105469 -2.558594 C 1.105469 -2.535156 1.105469 -2.515625 1.105469 -2.492188 C 1.105469 -2.328125 1.101562 -2.167969 1.097656 -2.003906 C 1.089844 -1.601562 1.082031 -1.191406 1.082031 -0.785156 C 1.082031 -0.640625 1.109375 -0.480469 1.167969 -0.335938 C 1.222656 -0.191406 1.347656 -0.105469 1.515625 -0.105469 C 1.679688 -0.105469 1.808594 -0.191406 1.863281 -0.34375 C 1.910156 -0.460938 1.933594 -0.589844 1.929688 -0.699219 C 1.917969 -1.007812 1.886719 -1.3125 1.859375 -1.570312 C 1.832031 -1.808594 1.796875 -2.046875 1.765625 -2.292969 C 1.746094 -2.40625 1.730469 -2.519531 1.71875 -2.636719 L 1.707031 -2.695312 L 2.136719 -2.695312 C 2.183594 -2.695312 2.230469 -2.695312 2.277344 -2.6875 C 2.375 -2.6875 2.484375 -2.6875 2.582031 -2.695312 C 2.78125 -2.710938 2.933594 -2.847656 2.949219 -3.035156 C 2.964844 -3.21875 2.847656 -3.375 2.648438 -3.4375 Z M 2.648438 -3.4375 "/></g></g></g></svg>