<svg xmlns="http://www.w3.org/2000/svg" xmlns:xlink="http://www.w3.org/1999/xlink" width="500" zoomAndPan="magnify" viewBox="0 0 375 374.999991" height="500" preserveAspectRatio="xMidYMid meet" version="1.0"><defs><clipPath id="de85f73523"><path d="M 102 23.765625 L 308 23.765625 L 308 337.265625 L 102 337.265625 Z M 102 23.765625 " clip-rule="nonzero"/></clipPath></defs><g clip-path="url(#de85f73523)"><path fill="#fcc22d" d="M 159.066406 23.765625 C 174.816406 23.765625 189.75 30.304688 200.386719 41.953125 L 292.847656 142.5 C 312.488281 163.960938 312.488281 196.863281 292.847656 218.117188 L 200.183594 318.871094 C 189.546875 330.316406 174.613281 337.058594 158.859375 337.058594 C 109.96875 337.058594 84.605469 279.019531 117.742188 243.050781 L 140.65625 218.320312 C 160.496094 196.863281 160.496094 163.757812 140.65625 142.5 L 117.949219 117.773438 C 84.808594 81.804688 110.378906 23.765625 159.066406 23.765625 Z M 159.066406 23.765625 " fill-opacity="1" fill-rule="nonzero"/></g></svg>